<mxfile host="app.diagrams.net" agent="Mozilla/5.0 (Macintosh; Intel Mac OS X 10_15_7) AppleWebKit/605.1.15 (KHTML, like Gecko) Version/18.5 Safari/605.1.15" version="28.0.7">
  <diagram id="A6rA2055UvdHdoAAf1rc" name="Pagina-1">
    <mxGraphModel dx="956" dy="960" grid="1" gridSize="10" guides="1" tooltips="1" connect="1" arrows="1" fold="1" page="0" pageScale="1" pageWidth="827" pageHeight="1169" math="0" shadow="0">
      <root>
        <mxCell id="0" />
        <mxCell id="1" parent="0" />
        <mxCell id="iqwG4hw89BQCbi3CoKXM-5" style="edgeStyle=none;curved=1;rounded=0;orthogonalLoop=1;jettySize=auto;html=1;entryX=0.5;entryY=0;entryDx=0;entryDy=0;fontSize=12;startSize=8;endSize=8;dashed=1;" edge="1" parent="1">
          <mxGeometry relative="1" as="geometry">
            <mxPoint x="40" y="-150" as="sourcePoint" />
            <mxPoint x="40" y="-70" as="targetPoint" />
          </mxGeometry>
        </mxCell>
        <mxCell id="iqwG4hw89BQCbi3CoKXM-2" value="Your module" style="rounded=0;whiteSpace=wrap;html=1;fillColor=#e1d5e7;strokeColor=#9673a6;" vertex="1" parent="1">
          <mxGeometry x="10" y="-210" width="120" height="60" as="geometry" />
        </mxCell>
        <mxCell id="iqwG4hw89BQCbi3CoKXM-12" style="edgeStyle=none;curved=1;rounded=0;orthogonalLoop=1;jettySize=auto;html=1;entryX=1;entryY=0.5;entryDx=0;entryDy=0;fontSize=12;startSize=8;endSize=8;dashed=1;" edge="1" parent="1" source="iqwG4hw89BQCbi3CoKXM-3" target="iqwG4hw89BQCbi3CoKXM-2">
          <mxGeometry relative="1" as="geometry" />
        </mxCell>
        <mxCell id="iqwG4hw89BQCbi3CoKXM-3" value="External module" style="rounded=0;whiteSpace=wrap;html=1;fillColor=#f5f5f5;fontColor=#333333;strokeColor=#666666;" vertex="1" parent="1">
          <mxGeometry x="340" y="-210" width="120" height="60" as="geometry" />
        </mxCell>
        <mxCell id="iqwG4hw89BQCbi3CoKXM-16" style="edgeStyle=none;curved=1;rounded=0;orthogonalLoop=1;jettySize=auto;html=1;exitX=0.75;exitY=0;exitDx=0;exitDy=0;entryX=0.75;entryY=1;entryDx=0;entryDy=0;fontSize=12;startSize=8;endSize=8;dashed=1;fillColor=#f8cecc;strokeColor=#b85450;" edge="1" parent="1" source="iqwG4hw89BQCbi3CoKXM-4" target="iqwG4hw89BQCbi3CoKXM-2">
          <mxGeometry relative="1" as="geometry" />
        </mxCell>
        <mxCell id="iqwG4hw89BQCbi3CoKXM-17" style="edgeStyle=none;curved=0;rounded=1;orthogonalLoop=1;jettySize=auto;html=1;fontSize=12;startSize=8;endSize=8;entryX=0.5;entryY=1;entryDx=0;entryDy=0;exitX=1;exitY=0.5;exitDx=0;exitDy=0;dashed=1;fillColor=#f8cecc;strokeColor=#b85450;" edge="1" parent="1" source="iqwG4hw89BQCbi3CoKXM-4" target="iqwG4hw89BQCbi3CoKXM-3">
          <mxGeometry relative="1" as="geometry">
            <mxPoint x="400" y="-40" as="targetPoint" />
            <Array as="points">
              <mxPoint x="400" y="-40" />
            </Array>
          </mxGeometry>
        </mxCell>
        <mxCell id="iqwG4hw89BQCbi3CoKXM-4" value="ImportSpy" style="rounded=1;whiteSpace=wrap;html=1;fillColor=#e1d5e7;strokeColor=#9673a6;" vertex="1" parent="1">
          <mxGeometry x="10" y="-70" width="120" height="60" as="geometry" />
        </mxCell>
        <mxCell id="iqwG4hw89BQCbi3CoKXM-9" value="«use»" style="text;html=1;align=center;verticalAlign=middle;whiteSpace=wrap;rounded=0;fontColor=#7EA6E0;" vertex="1" parent="1">
          <mxGeometry x="-30" y="-130" width="60" height="30" as="geometry" />
        </mxCell>
        <mxCell id="iqwG4hw89BQCbi3CoKXM-11" value="" style="endArrow=none;dashed=1;html=1;dashPattern=12 12;strokeWidth=1;rounded=0;fontSize=12;startSize=8;endSize=8;curved=1;" edge="1" parent="1">
          <mxGeometry width="50" height="50" relative="1" as="geometry">
            <mxPoint x="240" y="6" as="sourcePoint" />
            <mxPoint x="240" y="-214" as="targetPoint" />
          </mxGeometry>
        </mxCell>
        <mxCell id="iqwG4hw89BQCbi3CoKXM-13" value="«use»&lt;div&gt;import&lt;/div&gt;" style="text;html=1;align=center;verticalAlign=middle;whiteSpace=wrap;rounded=0;fontColor=#7EA6E0;" vertex="1" parent="1">
          <mxGeometry x="250" y="-220" width="60" height="30" as="geometry" />
        </mxCell>
        <mxCell id="iqwG4hw89BQCbi3CoKXM-18" value="«inspect»&lt;div&gt;validate&lt;/div&gt;" style="text;html=1;align=center;verticalAlign=middle;whiteSpace=wrap;rounded=0;fontColor=#F19C99;" vertex="1" parent="1">
          <mxGeometry x="170" y="-80" width="60" height="30" as="geometry" />
        </mxCell>
        <mxCell id="iqwG4hw89BQCbi3CoKXM-19" value="return ext.&lt;br&gt;&lt;div&gt;module&lt;/div&gt;" style="text;html=1;align=center;verticalAlign=middle;whiteSpace=wrap;rounded=0;fontColor=#F19C99;" vertex="1" parent="1">
          <mxGeometry x="110" y="-130" width="60" height="30" as="geometry" />
        </mxCell>
      </root>
    </mxGraphModel>
  </diagram>
</mxfile>
